<svg width="385" height="674" viewBox="0 0 385 674" fill="none" xmlns="http://www.w3.org/2000/svg">
<mask id="mask0_1412_114" style="mask-type:alpha" maskUnits="userSpaceOnUse" x="0" y="0" width="385" height="674">
<path d="M384.505 47.1579V626.526C384.472 639.023 379.493 650.999 370.656 659.835C361.82 668.672 349.844 673.651 337.347 673.684H47.1579C34.6611 673.651 22.6857 668.672 13.8491 659.835C5.01245 650.999 0.0333398 639.023 0 626.526V47.1579C0.0333398 34.6611 5.01245 22.6857 13.8491 13.8491C22.6857 5.01245 34.6611 0.0333398 47.1579 0H337.347C349.844 0.0333398 361.82 5.01245 370.656 13.8491C379.493 22.6857 384.472 34.6611 384.505 47.1579ZM337.347 124.8H47.1579V556.211H337.347V124.8ZM113.768 65.0947C113.768 71.3483 116.253 77.3457 120.675 81.7676C125.096 86.1895 131.094 88.6737 137.347 88.6737H247.242C253.496 88.6737 259.493 86.1895 263.915 81.7676C268.337 77.3457 270.821 71.3483 270.821 65.0947C270.821 58.8412 268.337 52.8438 263.915 48.4219C259.493 44 253.496 41.5158 247.242 41.5158H137.347C131.094 41.5158 125.096 44 120.675 48.4219C116.253 52.8438 113.768 58.8412 113.768 65.0947ZM215.789 614.947C215.789 610.302 214.413 605.762 211.833 601.899C209.253 598.036 205.586 595.025 201.295 593.245C197.005 591.466 192.283 590.998 187.727 591.901C183.17 592.804 178.984 595.038 175.696 598.319C172.409 601.601 170.168 605.783 169.257 610.338C168.345 614.893 168.805 619.615 170.576 623.909C172.348 628.203 175.353 631.875 179.211 634.462C183.069 637.049 187.608 638.434 192.253 638.442C195.342 638.448 198.401 637.844 201.257 636.666C204.112 635.488 206.707 633.758 208.893 631.576C211.079 629.393 212.814 626.801 213.997 623.948C215.18 621.095 215.789 618.036 215.789 614.947Z" fill="black"/>
</mask>
<g mask="url(#mask0_1412_114)">
<rect x="-1" y="-107" width="603" height="888" fill="#000068"/>
</g>
</svg>
