<svg width="674" height="674" viewBox="0 0 674 674" fill="none" xmlns="http://www.w3.org/2000/svg">
<mask id="mask0_1412_115" style="mask-type:alpha" maskUnits="userSpaceOnUse" x="0" y="0" width="674" height="674">
<path d="M620.023 0.0604457H57.706C50.4582 -0.279051 43.2142 0.814003 36.3893 3.27767C29.5644 5.74133 23.2926 9.52675 17.9322 14.417C12.5723 19.3077 8.22922 25.2076 5.15227 31.7785C2.07532 38.3498 0.324333 45.4632 0 52.7119V616.294C0.424581 631.462 6.64081 645.897 17.372 656.625C28.1032 667.357 42.5356 673.575 57.706 674H620.023C634.77 673.343 648.674 666.932 658.754 656.145C668.833 645.358 674.284 631.053 673.938 616.294V52.7119C674.06 45.6566 672.738 38.6514 670.055 32.1252C667.372 25.5993 663.383 19.6902 658.332 14.7599C653.286 9.83002 647.284 5.98353 640.696 3.45584C634.109 0.928153 627.074 -0.227242 620.023 0.0604457ZM210.606 561.958H112.463V261.634H210.606V561.958ZM163.851 216.142C157.003 216.381 150.179 215.201 143.808 212.676C137.437 210.151 131.658 206.336 126.832 201.471C122.006 196.605 118.239 190.795 115.766 184.404C113.293 178.013 112.169 171.179 112.463 164.333C112.161 157.412 113.308 150.505 115.831 144.055C118.355 137.603 122.198 131.751 127.116 126.873C132.034 121.994 137.917 118.198 144.388 115.727C150.86 113.256 157.776 112.165 164.694 112.524C171.542 112.285 178.366 113.465 184.737 115.99C191.107 118.515 196.887 122.33 201.713 127.195C206.538 132.061 210.306 137.871 212.779 144.262C215.252 150.653 216.376 157.487 216.081 164.333C216.384 171.253 215.237 178.16 212.714 184.611C210.19 191.063 206.346 196.915 201.429 201.793C196.511 206.671 190.628 210.468 184.157 212.939C177.685 215.41 170.769 216.501 163.851 216.142ZM561.896 561.958H463.333V397.685C463.333 358.513 449.433 331.555 414.472 331.555C403.613 331.648 393.045 335.097 384.225 341.432C375.4 347.768 368.754 356.676 365.19 366.937C362.452 374.628 361.307 382.795 361.821 390.946V561.958H264.942V261.634H361.821V303.755C370.434 287.93 383.252 274.797 398.862 265.8C414.472 256.807 432.264 252.303 450.275 252.787C513.878 252.787 561.896 294.91 561.896 384.628V561.958Z" fill="black"/>
</mask>
<g mask="url(#mask0_1412_115)">
<rect x="-44.2266" y="-208.5" width="761.971" height="1122.11" fill="#000068"/>
</g>
</svg>
