<svg width="934" height="742" viewBox="0 0 934 742" fill="none" xmlns="http://www.w3.org/2000/svg">
<mask id="mask0_1412_116" style="mask-type:alpha" maskUnits="userSpaceOnUse" x="0" y="0" width="934" height="742">
<path d="M34 178.429C34 133.565 34 111.134 41.3293 93.4386C51.1018 69.8462 69.8462 51.1018 93.4386 41.3293C111.134 34 133.565 34 178.429 34H756.143C801.007 34 823.437 34 841.134 41.3293C864.724 51.1018 883.471 69.8462 893.244 93.4386C900.571 111.134 900.571 133.565 900.571 178.429V563.571C900.571 608.436 900.571 630.866 893.244 648.563C883.471 672.153 864.724 690.9 841.134 700.673C823.437 708 801.007 708 756.143 708H178.429C133.565 708 111.134 708 93.4386 700.673C69.8462 690.9 51.1018 672.153 41.3293 648.563C34 630.866 34 608.436 34 563.571V178.429Z" stroke="#323232" stroke-width="66.6667" stroke-linejoin="round"/>
<path d="M82.1445 82.1406L403.883 363.661C440.183 395.425 494.392 395.425 530.692 363.661L852.43 82.1406" stroke="#323232" stroke-width="66.6667" stroke-linecap="round" stroke-linejoin="round"/>
</mask>
<g mask="url(#mask0_1412_116)">
<rect x="-30.9922" y="-253.414" width="995.113" height="1282.53" fill="#000068"/>
</g>
</svg>
